<?xml version="1.0" encoding="utf-8"?>
<!-- Generator: Adobe Illustrator 19.0.1, SVG Export Plug-In . SVG Version: 6.00 Build 0)  -->
<svg version="1.1" xmlns="http://www.w3.org/2000/svg" xmlns:xlink="http://www.w3.org/1999/xlink" x="0px" y="0px"
	 viewBox="0 0 1000 700" style="enable-background:new 0 0 1000 700;" xml:space="preserve">
<style type="text/css">
	.st0{fill:#030202;stroke:#000000;stroke-miterlimit:10;}
	.st1{fill:#BE1E2D;stroke:#FFFFFF;stroke-width:10;stroke-miterlimit:10;}
	.st2{fill:none;stroke:#000000;stroke-miterlimit:10;}
	.st3{fill:#F8F4F5;}
	.st4{font-family:'MyriadPro-BoldCond';}
	.st5{font-size:25.8699px;}
	.st6{fill:#408BCA;}
	.st7{fill:none;stroke:#000000;stroke-width:0.5;stroke-miterlimit:10;}
	.st8{fill:#E1E2E3;}
	.st9{fill:#408BCA;stroke:#000000;stroke-width:0.5;stroke-miterlimit:10;}
	.st10{fill:#67BC45;}
	.st11{fill:#656565;stroke:#000000;stroke-width:0.5;stroke-miterlimit:10;}
	.st12{fill:#656565;}
	.st13{fill:#F9F9FA;stroke:#F4F2F3;stroke-width:2;stroke-miterlimit:10;}
	.st14{fill:url(#SVGID_1_);}
	.st15{fill:#FFFFFF;}
	.st16{font-size:24px;}
	.st17{fill:#F8F7F7;stroke:#FFFFFF;stroke-width:2;stroke-miterlimit:10;}
	.st18{font-size:48px;}
	.st19{letter-spacing:28;}
	.st20{fill:#F9F2F3;}
	.st21{font-size:42px;}
</style>
<g id="Layer_1">
	<rect class="st0" width="1000" height="700"/>
</g>
<g id="Layer_2">
	<line class="st1" x1="146" y1="619.2" x2="697.9" y2="619.2"/>
	<line class="st2" x1="146" y1="619.2" x2="146" y2="605.4"/>
	<line class="st2" x1="284" y1="619.2" x2="284" y2="605.4"/>
	<line class="st2" x1="422" y1="619.2" x2="422" y2="605.4"/>
	<line class="st2" x1="559.9" y1="619.2" x2="559.9" y2="605.4"/>
	<line class="st2" x1="697.9" y1="619.2" x2="697.9" y2="605.4"/>
	<text transform="matrix(1 0 0 1 103.6387 628.9193)" class="st3 st4 st5">0%</text>
	<text transform="matrix(1 0 0 1 90.3681 518.5403)" class="st3 st4 st5">20%</text>
	<text transform="matrix(1 0 0 1 90.3681 408.1604)" class="st3 st4 st5">40%</text>
	<text transform="matrix(1 0 0 1 90.3681 297.784)" class="st3 st4 st5">60%</text>
	<text transform="matrix(1 0 0 1 90.3681 187.4046)" class="st3 st4 st5">80%</text>
	<text transform="matrix(1 0 0 1 77.0976 77.0266)" class="st3 st4 st5">100%</text>
	<line class="st2" x1="146" y1="619.2" x2="159.8" y2="619.2"/>
	<line class="st2" x1="146" y1="508.8" x2="159.8" y2="508.8"/>
	<line class="st2" x1="146" y1="398.5" x2="159.8" y2="398.5"/>
	<line class="st2" x1="146" y1="288.1" x2="159.8" y2="288.1"/>
	<line class="st2" x1="146" y1="177.7" x2="159.8" y2="177.7"/>
	<line class="st2" x1="146" y1="67.3" x2="159.8" y2="67.3"/>
	<rect x="217.8" y="89.4" class="st6" width="49.7" height="529.8"/>
	<rect x="217.8" y="89.4" class="st7" width="49.7" height="529.8"/>
	<rect x="355.7" y="106" class="st6" width="49.7" height="513.3"/>
	<rect x="355.7" y="106" class="st7" width="49.7" height="513.3"/>
	<rect x="493.7" y="172.2" class="st8" width="49.7" height="447"/>
	<rect x="493.7" y="172.2" class="st9" width="49.7" height="447"/>
	<rect x="631.7" y="299.1" class="st6" width="49.7" height="320.1"/>
	<rect x="631.7" y="299.1" class="st7" width="49.7" height="320.1"/>
	<rect x="162.6" y="232.9" class="st10" width="49.7" height="386.3"/>
	<rect x="162.6" y="232.9" class="st11" width="49.7" height="386.3"/>
	<rect x="300.6" y="282.6" class="st12" width="49.7" height="336.7"/>
	<rect x="300.6" y="282.6" class="st7" width="49.7" height="336.7"/>
	<rect x="438.5" y="365.3" class="st12" width="49.7" height="253.9"/>
	<rect x="438.5" y="365.3" class="st7" width="49.7" height="253.9"/>
	<rect x="576.5" y="542" class="st12" width="49.7" height="77.3"/>
	<rect x="576.5" y="542" class="st7" width="49.7" height="77.3"/>
	<line class="st13" x1="146" y1="619.2" x2="146" y2="67.3"/>
</g>
<g id="Layer_3">
	<linearGradient id="SVGID_1_" gradientUnits="userSpaceOnUse" x1="726.4122" y1="564.9556" x2="922.9023" y2="564.9556">
		<stop  offset="0" style="stop-color:#2484C6"/>
		<stop  offset="1" style="stop-color:#2484C6;stop-opacity:0"/>
	</linearGradient>
	<rect x="726.4" y="501" class="st14" width="196.5" height="127.9"/>
	<rect x="748.9" y="534.1" class="st6" width="36" height="26.3"/>
	<rect x="748.9" y="570.6" class="st12" width="36" height="26.3"/>
	<text transform="matrix(1 0 0 1 824.6575 554.3641)" class="st15 st4 st16">2015</text>
	<text transform="matrix(1 0 0 1 824.6581 590.9049)" class="st15 st4 st16">2000</text>
	<text transform="matrix(1 0 0 1 456.5237 67.3257)"><tspan x="0" y="0" class="st17 st4 st18">RISE OF INTERNET USERS BY </tspan><tspan x="0" y="57.6" class="st17 st4 st18 st19">	</tspan><tspan x="36" y="57.6" class="st17 st4 st18">AGE GROUP BETWEEN </tspan><tspan x="0" y="115.2" class="st17 st4 st18 st19">					</tspan><tspan x="180" y="115.2" class="st17 st4 st18">2000 - 2015</tspan></text>
	<text transform="matrix(1 0 0 1 309.5512 656.0916)" class="st20 st4 st21">30 - 49</text>
	<text transform="matrix(1 0 0 1 152.9208 656.0919)" class="st20 st4 st21">18 - 29</text>
	<text transform="matrix(1 0 0 1 463.3597 656.0919)" class="st20 st4 st21">50- 64</text>
	<text transform="matrix(1 0 0 1 607.996 656.0916)" class="st20 st4 st21">65+</text>
</g>
</svg>
