<?xml version="1.0" encoding="utf-8"?>
<!-- Generator: Adobe Illustrator 19.0.1, SVG Export Plug-In . SVG Version: 6.00 Build 0)  -->
<svg version="1.1" xmlns="http://www.w3.org/2000/svg" xmlns:xlink="http://www.w3.org/1999/xlink" x="0px" y="0px"
	 viewBox="0 0 1000 700" style="enable-background:new 0 0 1000 700;" xml:space="preserve">
<style type="text/css">
	.st0{stroke:#000000;stroke-miterlimit:10;}
	.st1{stroke:#F7F7F5;stroke-width:3;stroke-miterlimit:10;}
	.st2{fill:#353535;}
	.st3{fill:#F5EB25;}
	.st4{fill:#EE2B24;}
	.st5{fill:#020202;}
	.st6{fill:#2D2D2D;}
	.st7{fill:#6DBE45;}
	.st8{fill:#ED194D;}
	.st9{fill:#F7F5F6;}
	.st10{font-family:'MyriadPro-BoldCond';}
	.st11{font-size:44px;}
	.st12{font-size:20px;}
	.st13{fill:#F8F7F8;}
	.st14{font-size:60px;}
</style>
<g id="Layer_1">
	<rect class="st0" width="1000" height="700"/>
</g>
<g id="Layer_2">
	<circle class="st1" cx="190.8" cy="512.9" r="147.7"/>
	<circle class="st1" cx="796.1" cy="202.3" r="147.7"/>
	<circle class="st1" cx="796.1" cy="512.9" r="147.7"/>
	<circle class="st2" cx="796.1" cy="202.3" r="117.8"/>
	<circle class="st2" cx="190.8" cy="512.9" r="117.8"/>
	<path class="st3" d="M299.3,512.9c0,59.9-48.6,108.5-108.5,108.5c-59.9,0-108.5-48.6-108.5-108.5c0-42.8,24.8-79.9,60.9-97.5
		L126,380.1c-49.1,24-83,74.5-83,132.8c0,81.6,66.1,147.7,147.7,147.7s147.7-66.1,147.7-147.7s-66.1-147.7-147.7-147.7v39.3
		C250.7,404.4,299.3,453,299.3,512.9z"/>
	<circle class="st2" cx="796.1" cy="512.9" r="117.8"/>
	<path class="st4" d="M796.1,365.1c-1.6,0-3.1,0-4.7,0.1v39.3c1.5-0.1,3.1-0.1,4.7-0.1c59.9,0,108.5,48.6,108.5,108.5
		c0,59.9-48.6,108.5-108.5,108.5c-48.1,0-88.8-31.3-103.1-74.6l-37.1,12.8c19.5,58.7,74.9,101.1,140.2,101.1
		c81.6,0,147.7-66.1,147.7-147.7S877.7,365.1,796.1,365.1z"/>
	<circle class="st5" cx="796.1" cy="512.9" r="108.5"/>
	<circle class="st6" cx="796.1" cy="512.9" r="99.1"/>
	<path class="st7" d="M904.6,202.3c0,59.9-48.6,108.5-108.5,108.5s-108.5-48.6-108.5-108.5c0-36.1,17.6-68,44.7-87.7l-23.1-31.8
		c-36.9,26.9-60.9,70.4-60.9,119.5c0,81.6,66.1,147.7,147.7,147.7s147.7-66.1,147.7-147.7S877.7,54.5,796.1,54.5v39.3
		C856,93.8,904.6,142.4,904.6,202.3z"/>
	<circle class="st5" cx="796.1" cy="202.3" r="108.5"/>
	<circle class="st6" cx="796.1" cy="202.3" r="99.1"/>
	<g>
		<circle class="st1" cx="190.8" cy="202.3" r="147.7"/>
		<circle class="st2" cx="190.8" cy="202.3" r="117.8"/>
		<path class="st8" d="M338.5,202.3c0-81.6-66.1-147.7-147.7-147.7v39.3c59.9,0,108.5,48.6,108.5,108.5s-48.6,108.5-108.5,108.5
			c-59.9,0-108.5-48.6-108.5-108.5c0-30.6,12.7-58.3,33.1-78L88.2,96c-27.8,26.9-45.1,64.5-45.1,106.3
			c0,81.6,66.1,147.7,147.7,147.7S338.5,283.9,338.5,202.3z"/>
		<circle class="st5" cx="190.8" cy="202.3" r="108.5"/>
		<circle class="st6" cx="190.8" cy="202.3" r="99.1"/>
	</g>
	<circle class="st5" cx="190.8" cy="512.9" r="108.5"/>
	<circle class="st6" cx="190.8" cy="512.9" r="99.1"/>
	<text transform="matrix(1 0 0 1 120.6094 162.2742)"><tspan x="0" y="0" class="st9 st10 st11">88% </tspan><tspan x="73.4" y="0" class="st9 st10 st12">OF PEOPLE</tspan><tspan x="0" y="24" class="st9 st10 st12"> WHO SEARCH FOR A </tspan><tspan x="0" y="48" class="st9 st10 st12">BUSINESS ON A MOBILE </tspan><tspan x="0" y="72" class="st9 st10 st12">DEVICES, GO WITHIN </tspan><tspan x="0" y="96" class="st9 st10 st12">24HRS.</tspan></text>
	<text transform="matrix(1 0 0 1 120.6098 471.2587)"><tspan x="0" y="0" class="st9 st10 st11">93% </tspan><tspan x="73.4" y="0" class="st9 st10 st12">OF PEOPLE</tspan><tspan x="0" y="24" class="st9 st10 st12"> ARE NOT MOBILE </tspan><tspan x="0" y="48" class="st9 st10 st12">COMPATABLE AND WILL</tspan><tspan x="0" y="72" class="st9 st10 st12"> NOT RENDER PROPERLY</tspan><tspan x="0" y="96" class="st9 st10 st12"> ON A MOBILE DEVICE</tspan></text>
	<text transform="matrix(1 0 0 1 726.5794 183.5086)"><tspan x="0" y="0" class="st9 st10 st11">90% </tspan><tspan x="73.4" y="0" class="st9 st10 st12">OF ALL </tspan><tspan x="0" y="24" class="st9 st10 st12">PURCHASING DECISIONS </tspan><tspan x="0" y="48" class="st9 st10 st12">ARE MADE ONLINE</tspan></text>
	<text transform="matrix(1 0 0 1 726.5797 471.2587)"><tspan x="0" y="0" class="st9 st10 st11">70% </tspan><tspan x="73.4" y="0" class="st9 st10 st12">OF </tspan><tspan x="0" y="24" class="st9 st10 st12">SMARTPHONE USERS </tspan><tspan x="0" y="48" class="st9 st10 st12">HAVE CONNECTED TO A</tspan><tspan x="0" y="72" class="st9 st10 st12">LOCAL BUSINESS AFTER</tspan><tspan x="0" y="96" class="st9 st10 st12">A SEARCH</tspan></text>
	<text transform="matrix(1 0 0 1 360.5975 332.0913)"><tspan x="0" y="0" class="st13 st10 st14">INTERESTING </tspan><tspan x="0" y="72" class="st13 st10 st14">  STATISTICS</tspan></text>
</g>
</svg>
